# xmcd
#
# Track frame offsets:
#	150
#	18880
#	40728
#	61403
#	86699
#	109799
#	129523
#	150449
#	169252
#	188655
#	207725
#	224911
#
# Disc length: 3199 seconds
#
# Revision: 0
# Processed by: cddbd v1.5.2PL0 Copyright (c) Steve Scherf et al.
# Submitted via: EasyCDDAExtractor 9.1.3.1
#
DISCID=a80c7d0c
DTITLE=Anna Bissh - X
DYEAR=1900
DGENRE=
TTITLE0=01_Taseis autoktonias
TTITLE1=02_X
TTITLE2=03_Se zileuw
TTITLE3=04_Marturio
TTITLE4=05_Sugxaritiria
TTITLE5=06_Paei teleiwse
TTITLE6=07_Tufli empistosuni
TTITLE7=08_Ta radiofwna
TTITLE8=09_Ekpli3i
TTITLE9=10_Aupnies
TTITLE10=11_Pes to 3ana
TTITLE11=12_Xronia polla
EXTD=
EXTT0=
EXTT1=
EXTT2=
EXTT3=
EXTT4=
EXTT5=
EXTT6=
EXTT7=
EXTT8=
EXTT9=
EXTT10=
EXTT11=
PLAYORDER=
